<svg width="28" height="28" viewBox="0 0 28 28" fill="none" xmlns="http://www.w3.org/2000/svg">
<path d="M20.9358 17.2397C21.008 17.3017 21.0929 17.3501 21.1857 17.3823C21.2784 17.4145 21.3773 17.4297 21.4765 17.4271C21.5758 17.4246 21.6735 17.4043 21.7642 17.3674C21.8548 17.3305 21.9365 17.2778 22.0047 17.2122C22.0729 17.1466 22.1263 17.0694 22.1616 16.9851C22.197 16.9008 22.2138 16.811 22.211 16.7208C22.2082 16.6305 22.1859 16.5417 22.1453 16.4594C22.1047 16.377 22.0467 16.3027 21.9745 16.2407L15.1709 10.4007C15.0306 10.2801 14.8447 10.2129 14.6516 10.2129C14.4584 10.2129 14.2726 10.2801 14.1322 10.4007L7.32792 16.2407C7.25416 16.3023 7.19461 16.3766 7.15271 16.4592C7.11081 16.5419 7.0874 16.6313 7.08385 16.7223C7.08029 16.8132 7.09666 16.9039 7.132 16.9891C7.16733 17.0743 7.22094 17.1522 7.2897 17.2184C7.35845 17.2846 7.44099 17.3377 7.53252 17.3746C7.62405 17.4115 7.72274 17.4316 7.82287 17.4336C7.92299 17.4356 8.02255 17.4194 8.11576 17.3861C8.20897 17.3529 8.29398 17.3031 8.36584 17.2397L14.6516 11.8449L20.9358 17.2397Z" fill="#130E67"/>
</svg>
