<svg width="56" height="56" viewBox="0 0 56 56" fill="none" xmlns="http://www.w3.org/2000/svg">
<path d="M0 28C0 12.536 12.536 0 28 0C43.464 0 56 12.536 56 28C56 43.464 43.464 56 28 56C12.536 56 0 43.464 0 28Z" fill="#EEEDFC"/>
<path d="M39.0837 42.25V39.0833C39.0837 37.4036 38.4164 35.7927 37.2287 34.605C36.0409 33.4173 34.43 32.75 32.7503 32.75H23.2503C21.5706 32.75 19.9597 33.4173 18.772 34.605C17.5843 35.7927 16.917 37.4036 16.917 39.0833V42.25" stroke="#736BEA" stroke-width="2.5" stroke-linecap="round" stroke-linejoin="round"/>
<path d="M28.0003 26.4167C31.4981 26.4167 34.3337 23.5811 34.3337 20.0833C34.3337 16.5855 31.4981 13.75 28.0003 13.75C24.5025 13.75 21.667 16.5855 21.667 20.0833C21.667 23.5811 24.5025 26.4167 28.0003 26.4167Z" stroke="#736BEA" stroke-width="2.5" stroke-linecap="round" stroke-linejoin="round"/>
<circle cx="48.5" cy="48.5" r="6.5" fill="#F4A316" stroke="white" stroke-width="2"/>
</svg>
